<?xml version="1.0" standalone="no"?>
<!DOCTYPE svg PUBLIC "-//W3C//DTD SVG 20010904//EN"
 "http://www.w3.org/TR/2001/REC-SVG-20010904/DTD/svg10.dtd">
<svg version="1.0" xmlns="http://www.w3.org/2000/svg"
 width="1098.000000pt" height="864.000000pt" viewBox="0 0 1098.000000 864.000000"
 preserveAspectRatio="xMidYMid meet">
<metadata>
Created by potrace 1.16, written by Peter Selinger 2001-2019
</metadata>
<g transform="translate(0.000000,864.000000) scale(0.100000,-0.100000)"
fill="#000000" stroke="none">
<path d="M6802 8220 c-13 -55 -38 -130 -57 -167 -18 -37 -31 -71 -29 -75 3 -4
-3 -5 -12 -1 -11 4 -15 2 -11 -4 10 -16 -52 -25 -126 -19 -45 4 -54 3 -32 -4
21 -6 -5 -8 -90 -8 -66 0 -123 -1 -127 -1 -3 -1 19 -29 50 -63 57 -61 185
-153 229 -164 21 -6 23 -12 23 -61 0 -47 -5 -60 -29 -88 -29 -34 -51 -105 -51
-168 0 -22 -3 -28 -9 -18 -12 18 -18 3 -16 -41 1 -31 -2 -38 -17 -38 -11 0
-18 -7 -18 -20 0 -13 7 -20 20 -20 11 0 20 5 20 10 0 6 23 24 51 41 36 23 47
35 40 42 -19 19 -12 27 21 27 47 0 114 44 129 84 11 32 15 34 61 35 27 0 65
-6 84 -14 19 -8 34 -10 34 -4 0 5 15 9 33 9 26 -1 29 -2 15 -11 -25 -14 -22
-26 15 -60 31 -30 107 -75 107 -64 0 3 13 -1 30 -10 16 -8 31 -15 35 -15 16 0
1 80 -25 135 -26 54 -77 234 -68 239 79 37 105 55 123 88 11 21 27 38 36 38
33 0 154 69 166 95 6 14 7 23 2 19 -5 -3 -9 -2 -9 3 0 4 -47 9 -105 10 -72 1
-103 -2 -99 -9 5 -8 -7 -9 -37 -5 -102 13 -155 17 -124 7 27 -8 26 -8 -15 -7
l-45 2 -8 50 c-13 82 -47 175 -77 209 -25 28 -27 36 -20 74 7 41 7 42 -19 42
-26 0 -28 -4 -49 -100z"/>
<path d="M5774 7209 c-28 -4 -61 -13 -75 -18 -21 -8 -17 -10 26 -11 l50 -1
-35 -15 c-19 -8 -43 -22 -53 -32 -14 -13 -20 -13 -26 -3 -15 24 -36 -82 -36
-186 0 -99 -1 -102 -17 -80 -10 12 -18 33 -19 47 -1 24 -1 24 -13 -5 -20 -46
-28 -88 -16 -80 13 8 13 8 -10 -50 -12 -31 -19 -42 -20 -28 -1 46 -18 29 -64
-65 -26 -53 -66 -121 -88 -149 -36 -48 -47 -55 -111 -74 l-71 -21 23 -19 23
-19 -41 0 c-23 0 -59 -9 -81 -20 -22 -11 -48 -20 -59 -20 -11 0 -22 -8 -25
-18 -4 -11 -24 -23 -53 -30 -33 -9 -60 -27 -95 -62 -27 -28 -51 -50 -54 -50
-2 0 -1 12 2 28 l7 27 -37 -35 c-36 -33 -122 -143 -159 -202 -15 -25 -15 -27
-1 -21 14 5 15 3 5 -15 -7 -12 -14 -22 -17 -22 -3 0 -2 5 1 10 3 6 -2 10 -13
10 -16 0 -24 -17 -46 -95 -31 -113 -31 -113 -7 -91 18 16 18 15 7 -34 -7 -31
-20 -56 -34 -65 -23 -17 -28 -10 -13 14 5 7 13 11 19 7 6 -4 8 2 5 14 -8 29
-17 25 -57 -21 -49 -58 -65 -114 -78 -275 -11 -137 -10 -144 12 -213 13 -39
27 -71 30 -71 11 0 4 -114 -8 -135 -8 -14 -12 -16 -12 -5 -1 20 -19 -11 -25
-42 -3 -12 -11 -29 -20 -37 -13 -14 -15 -13 -15 4 0 25 -42 -47 -60 -102 -18
-54 -20 -56 -40 -38 -18 16 -19 15 -34 -14 -21 -39 -21 -39 9 -33 l26 4 -17
-36 c-19 -39 -22 -41 -44 -26 -13 8 -13 10 1 10 9 0 19 7 23 15 3 8 1 15 -5
15 -14 0 -129 -79 -129 -89 0 -5 -13 -11 -29 -14 -25 -5 -75 -41 -146 -104
-12 -10 -24 -19 -28 -20 -4 -2 -33 -16 -65 -32 -31 -16 -72 -32 -89 -35 -18
-4 -31 -13 -30 -19 1 -9 -17 -11 -64 -9 -49 3 -68 0 -78 -12 -11 -13 -8 -14
22 -9 20 3 37 1 41 -6 5 -7 -5 -11 -29 -11 -20 0 -50 -7 -66 -16 -35 -18 -86
-93 -95 -140 -3 -18 -18 -45 -34 -61 -15 -15 -35 -43 -44 -61 -9 -18 -62 -80
-117 -138 -109 -115 -153 -171 -175 -223 -20 -49 -11 -48 26 1 18 24 30 34 26
23 -3 -11 -8 -32 -12 -47 -3 -16 -12 -28 -19 -28 -24 0 -72 -58 -79 -95 -4
-19 -11 -35 -17 -35 -5 0 -8 -31 -7 -72 1 -66 0 -73 -23 -86 -13 -9 -66 -57
-117 -109 -51 -51 -97 -93 -102 -93 -5 0 -12 -9 -15 -20 -4 -11 -10 -18 -14
-15 -11 6 -33 -70 -38 -131 -4 -37 -1 -53 11 -63 13 -11 17 -11 20 0 2 8 7 21
9 29 3 8 6 0 6 -18 1 -27 -4 -34 -26 -43 -16 -6 -38 -20 -50 -31 -26 -24 -26
-24 -14 20 5 17 8 32 5 32 -7 0 -64 -92 -64 -103 0 -5 7 -4 15 3 8 7 15 10 15
7 0 -2 -7 -21 -15 -40 -8 -20 -15 -49 -16 -64 0 -22 -2 -24 -8 -10 -6 16 -11
15 -51 -16 -25 -19 -52 -43 -61 -54 -23 -28 -49 -99 -48 -131 l1 -27 8 25 c8
24 8 23 9 -7 1 -28 5 -33 39 -42 82 -22 142 -32 174 -29 26 3 20 5 -27 11
-153 20 -138 30 31 20 78 -4 117 -10 99 -13 l-30 -7 39 -8 c21 -4 77 -5 123
-2 47 3 99 1 117 -5 17 -5 85 -12 151 -14 142 -5 210 -9 285 -17 37 -5 47 -4
30 2 -21 8 -22 9 -5 10 17 1 17 3 5 11 -12 8 -11 10 6 10 18 0 24 9 32 48 l10
47 1 -54 c0 -30 4 -51 8 -47 4 3 7 91 8 194 2 176 3 190 25 232 13 25 24 49
25 53 0 13 28 27 55 27 32 1 104 39 75 40 -12 0 -4 8 25 23 27 13 50 35 62 57
l18 35 0 -38 c0 -31 4 -37 20 -37 21 0 21 3 16 308 -3 169 -5 318 -6 332 -1
14 -1 45 1 70 3 56 -7 88 -29 92 -10 2 1 9 25 17 45 15 97 7 57 -9 -44 -17
-36 -30 18 -30 29 -1 80 -3 113 -6 33 -3 87 -5 120 -4 33 2 83 2 110 1 28 0
142 -3 255 -5 113 -2 210 -5 215 -6 19 -6 130 12 144 24 18 14 88 33 174 47
l67 11 0 69 c0 37 3 70 8 72 4 3 7 -17 8 -44 1 -59 15 -80 41 -57 10 8 49 23
87 33 132 35 313 138 386 221 23 27 31 32 26 16 -4 -12 -5 -22 -1 -22 19 0 87
44 114 75 20 23 48 41 77 50 59 17 187 101 201 132 7 15 7 21 1 17 -6 -4 -9
-1 -6 7 2 7 19 16 37 20 18 4 42 16 54 27 12 11 33 22 47 24 18 2 28 12 34 35
7 23 17 33 37 37 18 3 30 14 37 36 8 22 17 30 36 30 13 0 32 8 42 18 17 16 16
17 -12 23 -19 5 -22 7 -8 8 40 2 111 61 295 242 194 191 257 273 285 364 12
42 21 53 52 67 38 18 72 62 72 95 1 23 47 76 60 68 6 -4 10 12 10 39 0 32 4
46 14 46 25 0 65 49 77 94 6 25 17 51 25 57 20 16 17 39 -3 39 -11 1 -6 6 12
14 17 7 37 26 45 42 8 15 29 49 46 75 17 26 37 67 45 93 7 25 19 46 25 46 7 0
19 3 28 6 12 5 16 0 16 -17 0 -17 3 -20 8 -11 7 9 15 10 35 3 23 -9 27 -17 27
-48 0 -21 5 -55 11 -76 10 -36 11 -37 24 -20 13 17 14 17 8 -4 -3 -13 -2 -40
2 -60 6 -32 8 -35 17 -19 6 10 11 49 12 87 0 38 4 69 9 69 4 0 7 41 7 90 0 53
4 90 10 90 6 0 10 25 10 56 0 30 5 65 12 77 7 14 13 80 14 177 1 85 7 189 13
230 13 89 17 126 19 200 2 42 5 51 13 40 8 -12 9 -11 6 5 -3 11 -8 37 -12 57
-3 21 -10 40 -15 43 -4 3 -64 -37 -133 -89 -68 -51 -143 -104 -166 -117 -25
-14 -40 -28 -37 -36 3 -8 -2 -13 -13 -13 -22 0 -81 -63 -81 -86 0 -8 5 -12 10
-9 6 3 10 1 10 -5 0 -8 -7 -9 -17 -5 -42 17 -53 18 -48 2 4 -10 -2 -17 -17
-20 -48 -12 -169 -108 -213 -169 -25 -33 -45 -64 -45 -69 0 -5 34 -9 75 -9 58
0 75 3 75 14 0 9 7 12 20 9 11 -3 20 -8 20 -12 0 -8 -36 -102 -59 -156 -10
-22 -26 -60 -36 -84 -11 -24 -21 -38 -23 -32 -4 13 -102 -121 -137 -189 -12
-25 -28 -66 -35 -90 -6 -25 -17 -49 -24 -55 -24 -20 -54 -71 -67 -114 -12 -39
-14 -42 -23 -22 -13 30 -21 27 -52 -26 -15 -26 -49 -69 -75 -94 -25 -26 -90
-99 -144 -161 -53 -62 -150 -170 -216 -240 -81 -85 -119 -134 -119 -150 -1
-21 -2 -22 -14 -5 -18 23 -21 22 -45 -18 -13 -23 -25 -33 -36 -29 -10 4 -42
-20 -95 -70 -45 -41 -99 -85 -120 -97 -22 -13 -40 -28 -40 -34 0 -6 -34 -33
-76 -60 -81 -53 -159 -129 -149 -145 3 -6 0 -10 -7 -10 -26 0 -137 -59 -245
-131 -62 -41 -152 -98 -201 -128 -49 -30 -100 -63 -113 -73 l-24 -19 50 2 c77
3 129 0 122 -7 -3 -3 -48 -9 -101 -14 -107 -9 -165 -32 -217 -87 -19 -18 -43
-33 -56 -33 -17 0 -23 -6 -23 -23 0 -16 -13 -30 -46 -50 -26 -15 -51 -26 -58
-24 -6 2 5 11 24 19 37 16 81 58 61 58 -7 0 -4 11 8 28 21 30 32 138 35 352
l1 125 123 94 c104 81 121 97 107 107 -13 10 -11 12 15 17 17 4 30 13 30 21 0
8 16 20 35 26 20 7 56 27 80 45 39 30 49 33 107 33 36 -1 74 4 88 12 14 8 37
13 53 12 15 -1 27 2 27 8 0 5 -7 10 -16 10 -8 0 -13 4 -9 9 3 6 18 4 38 -4 24
-10 37 -10 52 -2 11 6 56 10 100 8 70 -2 84 1 115 21 19 13 43 39 52 58 11 20
18 28 18 18 0 -11 8 -18 20 -18 22 0 29 39 8 41 -7 0 -2 5 12 11 14 6 46 25
72 41 41 25 46 32 38 48 -8 15 -6 21 15 34 14 8 36 22 50 30 32 20 41 19 24
-2 -12 -15 -12 -16 1 -8 8 4 33 22 55 39 21 17 48 36 59 41 11 6 25 20 31 32
6 11 17 28 24 37 8 10 14 46 15 97 l1 81 65 24 c36 14 71 26 78 29 9 3 10 10
3 24 -10 17 -6 19 32 23 23 3 45 0 48 -5 4 -5 16 5 28 21 12 17 37 40 56 52
19 11 37 30 41 42 3 11 23 39 43 62 48 53 76 95 86 126 4 14 18 37 30 52 12
15 25 42 29 62 4 22 19 45 39 62 20 16 36 42 43 68 6 22 16 40 22 39 8 -2 12
12 12 37 0 22 -1 40 -3 40 -1 0 -18 -5 -37 -11 -73 -21 -132 -26 -178 -15
l-46 12 62 60 c34 34 62 65 62 71 0 5 9 18 21 29 22 20 49 66 49 84 0 5 -8 10
-17 10 -13 0 -12 4 7 13 13 7 35 28 48 47 23 33 24 33 18 8 -6 -26 -5 -27 22
-17 57 20 119 101 107 139 -3 10 -13 24 -22 32 -14 11 -15 10 -8 -12 11 -36 0
-22 -19 24 -14 33 -14 37 -1 32 12 -4 13 -2 6 13 -17 30 -34 39 -96 46 -55 7
-64 12 -111 60 l-51 53 -63 -13 c-35 -7 -126 -14 -204 -15 -166 -3 -155 -4
-271 14 -27 4 -63 9 -78 11 -15 2 -38 10 -50 17 -12 8 -43 20 -69 28 -26 7
-53 19 -59 26 -13 15 1 19 17 5 5 -5 20 -12 33 -16 l25 -7 -23 33 c-12 19 -34
58 -47 87 -27 56 -26 55 -110 41z"/>
<path d="M345 1841 c-44 -4 -72 -8 -63 -9 9 -1 19 -6 22 -10 2 -4 -11 -6 -30
-4 -29 4 -34 1 -34 -17 0 -14 6 -21 20 -21 11 0 21 6 21 13 1 6 5 -6 9 -28 13
-66 14 -925 1 -958 -6 -16 -23 -44 -37 -63 -15 -19 -24 -38 -20 -42 4 -3 46
-8 94 -9 48 -1 159 -4 247 -8 111 -4 155 -3 145 4 -11 8 0 11 41 11 38 0 61 5
69 15 7 9 15 13 18 10 3 -3 11 0 17 5 7 5 36 15 66 20 66 12 101 36 115 80 6
19 13 28 15 21 3 -8 14 -4 32 13 16 14 31 26 36 26 9 0 41 65 41 83 0 34 22
88 35 84 17 -7 23 39 25 193 1 200 -33 297 -146 419 -55 60 -107 88 -142 77
-13 -5 -22 1 -29 16 -13 28 -36 39 -128 63 -77 20 -299 28 -440 16z m368 -105
c181 -45 250 -111 312 -301 22 -68 26 -96 24 -190 -3 -221 -88 -383 -237 -453
-50 -24 -70 -27 -167 -28 -142 -1 -145 0 -146 45 0 29 -2 32 -9 16 -5 -12 -8
182 -8 455 0 261 4 464 8 450 5 -17 8 -19 9 -7 1 10 9 17 24 18 21 0 21 1 2 9
-45 19 94 9 188 -14z"/>
<path d="M9825 1841 c-44 -4 -73 -9 -65 -10 8 -2 2 -6 -15 -10 l-30 -7 58 -57
57 -58 -2 -247 -2 -247 -6 232 c-3 127 -8 235 -12 239 -5 4 -9 -6 -9 -22 -2
-28 -2 -28 -9 6 -4 19 -7 -161 -8 -400 0 -239 4 -421 8 -405 7 29 8 29 9 -10
1 -30 4 -36 11 -25 8 12 10 9 10 -12 0 -15 7 -34 16 -43 9 -9 14 -19 10 -22
-3 -3 -15 6 -27 20 -11 15 -26 27 -33 27 -11 0 -76 -71 -76 -84 0 -3 17 -10
38 -15 48 -14 293 -14 272 -1 -12 8 -11 10 7 10 30 0 20 21 -20 41 l-32 16 3
179 c3 138 1 189 -11 221 -11 34 -12 40 -1 36 8 -3 22 -2 31 1 15 6 15 8 3 16
-26 17 77 11 112 -6 19 -8 41 -29 50 -45 17 -29 45 -41 35 -15 -4 10 -1 13 8
10 8 -3 13 -20 12 -42 -1 -63 13 -112 59 -204 40 -80 58 -98 75 -75 3 5 9 1
12 -8 4 -9 3 -13 -3 -10 -6 3 -10 2 -10 -4 0 -5 5 -13 11 -17 6 -3 17 -22 25
-40 11 -27 20 -34 42 -34 15 0 42 -4 60 -9 20 -6 32 -6 32 0 0 5 10 7 23 5 12
-3 48 -8 80 -11 51 -6 57 -4 57 12 0 10 -12 23 -27 30 -34 15 -72 50 -109 99
l-28 36 -18 -22 -18 -22 0 28 c0 44 -97 228 -162 305 l-58 69 28 6 c15 3 43
10 62 14 19 4 48 11 63 14 15 4 25 11 22 16 -3 5 5 21 19 35 13 15 30 35 38
44 8 9 22 21 30 26 11 7 17 30 20 73 2 34 1 57 -2 51 -4 -6 -10 17 -13 51 -4
44 -14 76 -34 108 -48 78 -112 112 -246 128 -26 3 -45 9 -42 14 2 4 -5 11 -18
15 -32 10 -269 14 -362 6z m378 -105 c29 -13 64 -37 79 -53 76 -80 79 -241 5
-322 -29 -32 -94 -60 -137 -61 -28 0 -32 -3 -20 -11 11 -8 -2 -9 -50 -5 -109
8 -100 -11 -99 220 0 121 4 193 9 181 8 -18 9 -17 9 7 1 14 -5 28 -11 31 -7 3
3 12 22 20 53 24 132 21 193 -7z"/>
<path d="M5895 1828 c-2 -7 -6 -36 -9 -65 -4 -29 -23 -86 -43 -128 -19 -42
-33 -78 -30 -81 17 -17 115 64 144 120 15 30 15 30 -2 16 -17 -14 -18 -13 -11
5 5 11 11 31 14 45 5 23 6 23 13 5 6 -15 8 -9 8 21 1 28 -5 46 -17 57 -22 20
-61 22 -67 5z"/>
<path d="M6320 1820 c0 -5 15 -10 33 -10 l32 0 -31 -19 c-45 -28 -70 -65 -84
-124 -7 -28 -17 -55 -23 -59 -6 -3 -10 -26 -11 -51 -1 -36 -4 -43 -14 -35 -15
13 -14 15 -39 -54 -18 -50 -19 -59 -6 -70 8 -6 12 -20 9 -30 -4 -16 -2 -17 11
-7 21 18 61 102 56 117 -3 7 2 28 11 46 9 19 16 47 16 63 0 15 4 35 10 43 7
12 10 11 16 -5 4 -11 20 -54 36 -95 17 -41 54 -146 83 -232 l53 -158 -160 0
-160 0 6 33 c15 70 20 170 8 163 -8 -5 -12 2 -13 21 0 24 -3 21 -17 -20 -10
-26 -22 -51 -28 -55 -6 -4 -19 -33 -28 -64 -9 -31 -26 -79 -37 -105 -12 -26
-21 -60 -20 -74 1 -16 -5 -29 -14 -33 -8 -3 -15 -11 -15 -18 0 -8 -20 -60 -45
-116 -47 -106 -53 -128 -33 -116 7 4 8 3 4 -4 -4 -7 -24 -12 -44 -13 -33 -1
-34 -2 -12 -9 23 -7 22 -8 -10 -9 l-35 -2 35 -16 c25 -11 72 -17 160 -19 78
-2 114 0 95 5 -16 5 -47 9 -67 10 -20 0 -39 5 -42 10 -8 12 34 22 53 12 9 -5
35 -12 59 -16 37 -6 42 -5 42 13 0 13 -11 22 -37 31 -21 6 -47 18 -57 26 -18
14 -18 19 -7 72 7 32 13 72 14 88 3 38 30 88 61 113 14 11 23 21 21 24 -3 3
32 11 78 18 61 9 93 10 118 2 19 -6 55 -13 80 -17 27 -3 54 -14 64 -25 21 -23
35 -18 36 13 l0 22 9 -21 c5 -12 16 -68 26 -125 16 -97 16 -107 1 -142 -9 -22
-26 -41 -37 -44 -25 -7 -16 -23 13 -24 20 -1 20 -2 -3 -9 -21 -7 -22 -8 -5 -9
15 -1 17 -3 7 -10 -23 -14 40 -21 192 -21 95 0 136 3 126 10 -12 8 -10 10 8
10 33 0 23 20 -21 43 -20 10 -37 25 -37 32 0 8 -15 26 -33 42 -31 26 -33 33
-35 96 -2 37 -11 93 -22 125 -48 147 -300 777 -310 775 -5 -2 -10 2 -10 7 0 6
-18 10 -40 10 -22 0 -40 -4 -40 -10z"/>
<path d="M1448 1808 c-41 -34 -65 -108 -35 -108 8 0 22 -9 32 -20 22 -24 67
-26 86 -4 7 9 14 34 14 56 0 31 -7 45 -28 64 -32 27 -46 30 -69 12z"/>
<path d="M9360 1795 c0 -4 7 -19 15 -36 16 -29 16 -29 -10 -25 -22 4 -24 2
-15 -14 6 -10 10 -32 10 -48 0 -26 3 -28 30 -24 17 2 30 10 30 18 0 10 7 13
25 8 18 -4 32 -1 45 11 41 37 15 76 -66 101 -51 15 -64 17 -64 9z"/>
<path d="M4489 1476 c-209 -56 -356 -323 -294 -533 18 -59 77 -130 131 -158
22 -11 52 -30 67 -42 34 -27 45 -28 76 -7 l23 17 -25 21 c-13 11 -45 71 -71
133 l-48 111 12 128 c6 70 17 139 25 154 21 41 80 88 120 96 20 3 32 10 28 17
-6 10 32 6 125 -14 l49 -10 41 -88 c38 -81 86 -141 123 -153 7 -2 9 -10 5 -16
-5 -9 -13 -9 -26 -2 -10 5 -21 10 -23 10 -3 0 -7 -44 -9 -97 -3 -86 -7 -106
-36 -166 -48 -98 -108 -131 -271 -152 -54 -7 -54 -8 -29 -21 79 -41 217 -21
281 41 19 18 47 36 63 39 39 9 53 21 104 90 34 47 44 70 46 105 2 25 6 66 10
90 5 37 2 53 -24 105 -16 33 -38 83 -47 110 -27 74 -76 123 -144 142 -31 9
-70 22 -86 29 -34 15 -111 35 -135 34 -8 0 -36 -6 -61 -13z"/>
<path d="M2010 1463 c-86 -30 -152 -88 -194 -170 l-17 -33 61 0 c55 0 60 2 60
22 0 32 84 108 118 108 52 0 100 -21 131 -56 28 -31 31 -41 31 -100 0 -52 -3
-66 -17 -71 -10 -4 -21 -10 -24 -15 -3 -4 -50 -19 -104 -33 -54 -14 -112 -33
-129 -43 -35 -20 -91 -99 -105 -146 -5 -17 -10 -23 -10 -14 -1 9 -5 19 -9 22
-13 8 -14 -101 -2 -139 14 -43 58 -81 112 -97 33 -10 42 -10 46 0 2 7 24 12
55 12 73 0 89 13 46 36 -19 10 -46 17 -61 16 -18 -2 -28 3 -28 11 0 8 -11 42
-25 76 l-26 62 21 34 c46 74 136 130 243 150 l37 7 -1 -38 c-1 -35 -2 -36 -9
-14 -7 20 -9 16 -7 -20 3 -115 -3 -156 -25 -180 -13 -14 -23 -31 -23 -38 0 -8
-17 -20 -38 -27 -53 -18 -57 -25 -14 -25 19 0 42 6 50 14 19 20 67 9 67 -16 0
-15 3 -17 19 -8 16 8 20 6 23 -12 4 -26 42 -48 96 -53 20 -3 29 -2 19 1 -14 4
-3 14 44 37 60 31 95 67 53 55 -11 -3 -25 -7 -33 -9 -8 -2 -26 13 -40 34 -15
24 -27 33 -32 26 -11 -19 -22 213 -14 318 7 89 6 96 -9 84 -14 -12 -16 -10
-16 18 0 18 -7 55 -16 83 -39 118 -174 177 -304 131z"/>
<path d="M3400 1463 c-19 -8 -66 -23 -104 -33 l-69 -17 37 -33 36 -33 1 -481
c1 -265 5 -467 9 -451 l8 30 2 -30 c1 -26 3 -27 10 -10 7 17 9 15 9 -12 1 -31
-1 -33 -36 -33 -35 0 -36 -1 -17 -16 18 -15 18 -15 -8 -9 -36 7 -36 -1 0 -19
19 -10 61 -14 132 -14 87 -1 111 3 140 19 33 19 33 20 7 14 -22 -4 -36 1 -63
25 -19 16 -39 30 -45 30 -6 0 -8 13 -5 33 3 17 9 87 12 154 l7 122 48 6 c49 7
78 25 40 25 -12 0 -21 4 -21 9 0 6 -19 21 -42 35 l-42 25 2 133 c3 171 15 379
20 354 3 -14 9 -7 24 25 10 24 38 61 61 81 47 42 36 53 -12 12 -37 -31 -50
-24 -82 38 -11 21 -20 38 -22 37 -1 0 -18 -7 -37 -16z"/>
<path d="M3643 1460 c-18 -10 -39 -32 -47 -48 l-15 -29 70 -5 c94 -7 141 -39
186 -126 30 -58 32 -68 26 -124 -5 -45 -3 -59 5 -54 15 9 15 6 -3 -78 -26
-125 -92 -200 -213 -244 -32 -12 -68 -32 -80 -45 l-22 -23 85 -1 c74 0 85 2
85 17 0 15 6 16 40 10 31 -6 40 -4 40 6 0 8 9 14 20 14 11 0 20 7 20 15 0 8 8
15 18 15 34 0 79 38 102 87 71 153 86 193 72 193 -4 0 -7 46 -7 103 0 94 -2
107 -30 161 -43 85 -101 141 -166 160 -73 22 -146 21 -186 -4z"/>
<path d="M5240 1459 c-30 -10 -74 -23 -97 -29 -31 -8 -43 -16 -43 -29 0 -15
28 -32 48 -30 2 0 10 -8 18 -18 11 -14 13 -76 14 -300 l0 -281 -30 -14 c-33
-14 -39 -28 -12 -28 14 0 15 -2 2 -10 -13 -9 -13 -10 0 -10 13 0 13 -2 1 -9
-22 -14 58 -23 184 -19 105 3 108 3 55 12 -53 9 -54 10 -22 17 18 4 42 5 52 2
30 -8 32 14 2 25 -15 5 -37 18 -50 28 -22 19 -22 23 -25 283 -1 146 -1 258 1
249 3 -14 10 -12 48 9 66 37 136 56 146 41 4 -7 8 -9 8 -5 0 5 16 -1 36 -13
19 -12 37 -20 40 -17 3 3 6 28 7 56 2 51 12 67 20 34 2 -10 3 -3 1 15 -5 50
-26 65 -82 57 -55 -8 -103 -35 -121 -68 -8 -15 -27 -26 -56 -33 l-43 -10 -5
40 c-3 21 -14 47 -24 56 -17 17 -21 17 -73 -1z"/>
<path d="M7840 1471 c-41 -13 -83 -38 -118 -70 -18 -17 -36 -31 -40 -31 -18 0
-47 -50 -69 -118 -29 -93 -29 -119 2 -62 31 57 31 44 0 -93 -14 -62 -28 -122
-30 -134 -5 -21 -2 -23 33 -23 39 0 39 0 46 -47 7 -52 0 -71 -9 -27 -9 41 -19
57 -37 60 -13 1 -14 -3 -8 -26 11 -37 40 -80 54 -80 7 0 17 -17 22 -37 7 -31
14 -38 41 -44 17 -3 49 -17 70 -30 32 -19 53 -23 130 -25 65 -1 92 2 90 10 -1
6 -6 14 -10 17 -4 3 9 6 29 7 54 2 166 56 158 77 -9 22 -43 38 -57 27 -55 -42
-237 -40 -289 3 -16 14 -33 23 -38 20 -22 -14 -71 113 -90 230 -5 28 -12 59
-16 69 -6 17 -5 18 12 11 10 -5 116 -9 234 -10 118 0 220 -2 225 -4 6 -2 23
-3 39 -2 29 1 29 1 22 53 -4 28 -14 67 -22 86 -8 19 -14 45 -14 58 0 19 -7 24
-35 30 -25 4 -40 15 -50 35 -20 37 -44 49 -135 65 -84 15 -104 16 -140 5z
m112 -36 c16 -14 34 -25 39 -25 17 0 9 10 -23 27 -26 14 -29 18 -15 21 18 4
57 -23 57 -38 0 -4 16 -34 35 -66 26 -43 35 -69 35 -102 0 -26 4 -41 10 -37 6
3 10 2 10 -3 0 -16 -91 -23 -155 -12 -67 11 -235 2 -213 -11 9 -6 6 -9 -10 -9
l-22 0 20 39 c10 22 22 57 26 78 5 34 14 44 69 81 34 23 70 51 80 62 23 25 21
25 57 -5z"/>
<path d="M8459 1446 c-48 -18 -94 -31 -104 -30 -13 2 -14 -1 -5 -12 7 -7 34
-17 61 -20 47 -6 49 -8 48 -38 -1 -30 -1 -30 -9 -6 -8 25 -8 25 -10 -5 -2 -30
-2 -30 -10 -5 -4 14 -8 -101 -9 -258 -1 -168 3 -281 8 -278 5 4 0 -12 -11 -35
-16 -34 -23 -40 -43 -36 -14 2 -22 0 -19 -4 3 -5 15 -9 27 -10 21 0 21 -1 2
-8 -14 -6 -7 -9 29 -14 73 -10 98 -9 90 5 -5 8 5 9 34 5 23 -3 61 -2 85 1 37
5 39 7 17 13 l-25 7 27 1 27 1 -34 50 -34 51 6 147 c4 112 2 166 -10 227 -8
44 -16 98 -16 120 -3 77 -16 158 -26 161 -5 2 -49 -11 -96 -30z"/>
<path d="M8823 1464 c-18 -9 -38 -29 -45 -45 l-13 -30 -5 26 -5 25 -42 -21
c-43 -21 -129 -97 -120 -106 3 -2 39 5 79 16 122 34 177 24 235 -42 17 -20 33
-32 35 -26 2 7 2 -241 -2 -528 0 -8 -14 -13 -32 -14 -28 0 -30 -2 -13 -9 14
-6 16 -9 5 -10 -8 -1 -4 -6 10 -10 14 -4 79 -8 145 -8 74 0 110 3 95 8 l-25 8
25 2 c14 1 29 2 33 1 13 -2 -10 32 -44 64 -44 42 -49 63 -37 141 7 50 7 86 -3
143 -6 42 -11 102 -10 133 5 133 -63 258 -155 286 -53 16 -72 15 -111 -4z"/>
<path d="M9430 1459 c-41 -11 -92 -24 -112 -30 -28 -7 -38 -15 -38 -29 0 -17
7 -20 39 -20 l39 0 7 -157 c9 -184 -3 -345 -35 -446 -19 -61 -23 -67 -38 -56
-9 7 -7 2 6 -12 21 -23 29 -24 160 -27 88 -2 132 0 123 7 -11 7 -10 10 5 14
14 3 11 6 -13 12 -38 9 -39 12 -54 170 -7 78 -9 203 -4 358 3 130 3 237 -2
236 -4 0 -42 -10 -83 -20z"/>
<path d="M1543 1459 c3 -9 1 -22 -4 -30 -7 -11 -9 -10 -9 6 0 14 -3 16 -11 8
-7 -7 -25 -9 -41 -6 -31 6 -115 -14 -125 -29 -15 -25 43 -33 91 -13 19 8 19 7
4 -14 -11 -15 -15 -36 -12 -60 3 -28 2 -32 -5 -16 -6 13 -9 -71 -9 -245 0
-147 4 -254 8 -240 7 23 8 23 10 -10 l2 -35 8 30 8 30 1 -37 c1 -36 0 -37 -44
-44 -41 -6 -63 -23 -32 -25 6 0 3 -4 -8 -9 l-20 -9 20 0 c15 -1 17 -3 7 -10
-22 -13 38 -21 162 -21 75 0 106 3 96 10 -12 8 -9 10 13 10 21 0 27 5 27 21 0
19 -4 21 -44 15 -43 -7 -44 -6 -51 23 -3 16 -7 176 -8 355 -2 305 -3 326 -21
343 -16 15 -18 15 -13 2z"/>
<path d="M2730 1449 c-90 -41 -138 -115 -106 -164 16 -24 15 -25 -4 -25 -17 0
-19 -4 -14 -27 11 -45 32 -80 61 -103 83 -65 153 -112 191 -127 34 -14 47 -28
67 -67 24 -48 32 -115 19 -151 -9 -23 -57 -45 -99 -45 -55 0 -103 25 -171 90
-34 33 -65 60 -68 60 -3 0 -6 -33 -6 -72 l0 -73 36 -18 c19 -9 40 -15 45 -12
5 4 9 3 9 -2 0 -4 17 -9 38 -10 20 -1 56 -7 80 -14 38 -10 77 -9 137 5 11 2
27 5 35 5 8 1 20 12 27 26 6 14 7 23 2 19 -5 -3 -9 0 -9 5 0 13 2 13 34 2 22
-9 26 -7 36 22 6 18 14 59 17 93 4 49 1 70 -16 110 -28 62 -61 99 -73 82 -6
-10 -13 -7 -28 12 -64 84 -73 90 -110 83 -32 -6 -34 -5 -21 10 12 15 8 19 -33
38 -50 22 -78 62 -95 138 -10 44 -11 43 59 56 19 4 40 12 47 17 21 17 104 -19
168 -72 33 -28 63 -50 67 -50 5 0 8 33 8 74 l0 73 -67 17 c-96 23 -206 21
-263 -5z"/>
<path d="M6853 1454 c-42 -18 -56 -39 -20 -30 24 6 27 3 37 -36 6 -24 31 -86
55 -138 25 -52 45 -102 45 -111 0 -15 39 -140 47 -148 2 -3 10 4 18 15 13 18
14 16 15 -24 0 -51 24 -108 51 -123 11 -5 19 -17 19 -25 0 -9 -5 -12 -12 -8
-10 6 -10 5 -2 -7 7 -8 15 -37 19 -64 7 -58 19 -83 29 -66 4 6 18 11 31 11 19
0 26 7 31 28 3 15 7 31 8 37 2 5 10 10 20 10 12 0 27 25 52 85 74 177 86 216
90 279 3 57 6 67 29 80 28 17 65 85 65 118 0 12 8 35 18 52 13 25 24 31 50 31
25 0 32 4 32 20 0 19 -7 20 -109 20 l-108 0 14 -52 c9 -34 12 -75 8 -115 -6
-64 -60 -235 -76 -241 -5 -2 -9 -10 -9 -18 0 -19 -52 -144 -60 -144 -9 0 -63
120 -80 175 -18 57 -20 58 -42 38 -21 -18 -21 -18 -15 21 4 22 3 45 -2 50 -14
19 -54 185 -48 200 4 9 24 23 47 32 50 20 54 49 9 58 -57 11 -222 5 -256 -10z"/>
</g>
</svg>
