<svg version="1.2" xmlns="http://www.w3.org/2000/svg" viewBox="0 0 128 100" width="128" height="100">
	<title>diasporavenir</title>
	<style>
		.s0 { fill: #000000 } 
	</style>
	<g>
		<path class="s0" d="m79.3 4.9c-0.2 0.6-0.4 1.5-0.7 1.9-0.2 0.4-0.3 0.8-0.3 0.9 0 0 0 0-0.1 0q-0.2-0.1-0.2 0c0.1 0.2-0.6 0.3-1.4 0.2q-0.8 0-0.4 0.1c0.2 0.1-0.1 0.1-1.1 0.1-0.7 0-1.4 0-1.4 0-0.1 0 0.2 0.3 0.5 0.7 0.7 0.7 2.2 1.8 2.7 1.9 0.2 0.1 0.3 0.2 0.3 0.7 0 0.6-0.1 0.7-0.4 1-0.3 0.4-0.6 1.3-0.6 2q0 0.4-0.1 0.2-0.2-0.3-0.2 0.5c0.1 0.3 0 0.4-0.1 0.4q-0.3 0-0.3 0.2 0 0.3 0.3 0.3c0.1 0 0.2-0.1 0.2-0.1 0-0.1 0.3-0.3 0.6-0.5 0.4-0.3 0.5-0.4 0.5-0.5q-0.4-0.3 0.2-0.3c0.6 0 1.3-0.5 1.5-1 0.1-0.4 0.2-0.4 0.7-0.4 0.3 0 0.8 0.1 1 0.2 0.2 0.1 0.4 0.1 0.4 0 0 0 0.2-0.1 0.4-0.1 0.3 0 0.3 0 0.2 0.1-0.3 0.2-0.3 0.3 0.1 0.7 0.4 0.4 1.3 0.9 1.3 0.8 0-0.1 0.1 0 0.3 0.1 0.2 0.1 0.4 0.2 0.4 0.2 0.2 0 0.1-1-0.2-1.6-0.4-0.6-0.9-2.7-0.8-2.8 0.9-0.4 1.2-0.6 1.4-1 0.1-0.2 0.3-0.4 0.4-0.4 0.4 0 1.8-0.8 1.9-1.1 0.1-0.2 0.1-0.3 0.1-0.2q-0.1 0-0.1-0.1c0 0-0.6-0.1-1.3-0.1-0.8 0-1.2 0-1.1 0.1q0.1 0.1-0.4 0.1c-1.2-0.2-1.9-0.2-1.5-0.1 0.3 0.1 0.3 0.1-0.2 0.1l-0.5-0.1-0.1-0.5c-0.1-1-0.5-2.1-0.9-2.5-0.3-0.3-0.3-0.4-0.2-0.8 0.1-0.5 0.1-0.5-0.2-0.5-0.3 0-0.4 0-0.6 1.2z"/>
		<path class="s0" d="m67.3 16.6c-0.3 0-0.7 0.1-0.9 0.2-0.2 0.1-0.2 0.1 0.3 0.1h0.6l-0.4 0.2c-0.2 0.1-0.5 0.2-0.6 0.4-0.2 0.1-0.2 0.1-0.3 0-0.2-0.3-0.4 0.9-0.4 2.1 0 1.2 0 1.2-0.2 1-0.1-0.2-0.2-0.4-0.2-0.6-0.1-0.3-0.1-0.3-0.2 0.1-0.2 0.5-0.3 1-0.2 0.9 0.2-0.1 0.2-0.1-0.1 0.6q-0.2 0.5-0.2 0.3c0-0.5-0.2-0.3-0.8 0.8-0.3 0.6-0.7 1.4-1 1.7-0.4 0.5-0.6 0.6-1.3 0.8l-0.8 0.3 0.2 0.2 0.3 0.2h-0.5c-0.2 0-0.7 0.1-0.9 0.3-0.3 0.1-0.6 0.2-0.7 0.2-0.1 0-0.3 0.1-0.3 0.2 0 0.1-0.3 0.3-0.6 0.3-0.4 0.1-0.7 0.4-1.1 0.8-0.3 0.3-0.6 0.5-0.6 0.5-0.1 0-0.1-0.1 0-0.3l0.1-0.3-0.5 0.4c-0.4 0.4-1.4 1.7-1.8 2.3-0.2 0.3-0.2 0.4 0 0.3 0.1-0.1 0.1 0 0 0.2-0.1 0.1-0.1 0.2-0.2 0.2q0 0 0-0.1 0.1-0.1-0.1-0.1c-0.2 0-0.3 0.2-0.6 1.1-0.3 1.3-0.3 1.3 0 1 0.2-0.1 0.2-0.1 0 0.4 0 0.4-0.2 0.7-0.4 0.8-0.2 0.2-0.3 0.1-0.1-0.2 0.1-0.1 0.1-0.1 0.2-0.1q0.1 0.1 0.1-0.1c-0.1-0.4-0.2-0.3-0.7 0.2-0.6 0.7-0.7 1.3-0.9 3.2-0.1 1.6-0.1 1.7 0.1 2.5 0.2 0.4 0.4 0.8 0.4 0.8 0.1 0 0 1.3-0.1 1.6q-0.1 0.2-0.1 0c-0.1-0.2-0.3 0.1-0.3 0.5-0.1 0.1-0.2 0.3-0.3 0.4-0.1 0.2-0.1 0.2-0.1 0 0-0.3-0.5 0.5-0.7 1.2-0.2 0.6-0.3 0.6-0.5 0.4-0.2-0.2-0.2-0.2-0.4 0.2-0.2 0.4-0.2 0.4 0.1 0.3h0.3l-0.2 0.4c-0.2 0.5-0.2 0.5-0.5 0.3q-0.2-0.1 0-0.1c0.1 0 0.2-0.1 0.3-0.2 0-0.1 0-0.1-0.1-0.1-0.1 0-1.5 0.9-1.5 1 0 0-0.1 0.1-0.3 0.1-0.3 0.1-0.9 0.5-1.7 1.3-0.2 0.1-0.3 0.2-0.4 0.2 0 0-0.3 0.2-0.7 0.4-0.4 0.1-0.9 0.3-1 0.4-0.3 0-0.4 0.1-0.4 0.2 0 0.1-0.2 0.1-0.7 0.1-0.6-0.1-0.8 0-1 0.1-0.1 0.2 0 0.2 0.3 0.1 0.2 0 0.4 0 0.5 0.1q0.1 0.1-0.4 0.1c-0.2 0-0.5 0.1-0.7 0.2-0.4 0.2-1 1.1-1.1 1.6-0.1 0.2-0.2 0.5-0.4 0.7-0.2 0.2-0.4 0.5-0.5 0.7-0.1 0.2-0.8 1-1.4 1.6-1.3 1.4-1.8 2-2 2.6q-0.4 0.9 0.3 0c0.2-0.3 0.3-0.4 0.3-0.3-0.1 0.2-0.1 0.4-0.2 0.6 0 0.2-0.1 0.3-0.2 0.3-0.3 0-0.8 0.7-0.9 1.1-0.1 0.2-0.2 0.4-0.2 0.4-0.1 0-0.1 0.4-0.1 0.8 0 0.8 0 0.9-0.3 1-0.1 0.1-0.7 0.7-1.3 1.3-0.6 0.6-1.2 1.1-1.2 1.1-0.1 0-0.2 0.1-0.2 0.2 0 0.1-0.1 0.2-0.2 0.2-0.1-0.1-0.3 0.8-0.4 1.5-0.1 0.4 0 0.6 0.1 0.7 0.2 0.2 0.2 0.2 0.3 0 0-0.1 0-0.2 0.1-0.3 0-0.1 0 0 0 0.2 0 0.3 0 0.4-0.3 0.5-0.2 0.1-0.4 0.2-0.6 0.4-0.3 0.2-0.3 0.2-0.1-0.3 0-0.2 0.1-0.3 0-0.3 0 0-0.7 1-0.7 1.1 0 0.1 0.1 0.1 0.2 0 0.1-0.1 0.1-0.1 0.1-0.1 0 0.1 0 0.3-0.1 0.5-0.1 0.2-0.2 0.6-0.2 0.7q0 0.4-0.1 0.2c-0.1-0.2-0.1-0.2-0.6 0.1-0.3 0.3-0.6 0.5-0.7 0.7-0.3 0.3-0.6 1.1-0.6 1.5v0.3l0.1-0.3c0.1-0.3 0.1-0.3 0.1 0.1 0 0.3 0.1 0.4 0.5 0.5 0.9 0.2 1.6 0.3 2 0.3 0.3 0 0.2-0.1-0.3-0.1-1.8-0.3-1.6-0.4 0.4-0.3 0.9 0.1 1.3 0.2 1.1 0.2l-0.3 0.1 0.4 0.1c0.3 0 0.9 0 1.5 0 0.5 0 1.1 0 1.3 0.1 0.2 0 1 0.1 1.8 0.1 1.6 0.1 2.4 0.1 3.3 0.2q0.6 0.1 0.4 0c-0.3-0.1-0.3-0.1-0.1-0.1 0.2 0 0.2-0.1 0.1-0.2q-0.3-0.1 0-0.1c0.2 0 0.3-0.1 0.4-0.5l0.1-0.6v0.7c0 0.3 0.1 0.5 0.1 0.5 0.1 0 0.1-1.1 0.1-2.2 0-2.1 0-2.2 0.3-2.7 0.2-0.3 0.3-0.6 0.3-0.6 0-0.2 0.3-0.4 0.6-0.4 0.4 0 1.2-0.4 0.9-0.4q-0.2 0 0.3-0.3c0.3-0.1 0.6-0.4 0.7-0.6l0.2-0.5v0.5c0 0.3 0.1 0.4 0.3 0.4 0.2 0 0.2 0 0.2-3.5-0.1-2-0.1-3.7-0.1-3.9 0-0.2 0-0.5 0-0.8q0-1-0.3-1.1c-0.2 0 0-0.1 0.2-0.2 0.6-0.1 1.2 0 0.7 0.1-0.5 0.2-0.4 0.4 0.2 0.4 0.4 0 1 0 1.3 0.1 0.4 0 1.1 0 1.4 0 0.4 0 1 0 1.3 0 0.3 0 1.7 0 3 0 1.3 0.1 2.4 0.1 2.5 0.1 0.2 0.1 1.5-0.1 1.7-0.3 0.2-0.1 1-0.3 2-0.5l0.8-0.1v-0.8c0-0.5 0-0.8 0.1-0.9 0 0 0.1 0.2 0.1 0.5 0 0.7 0.1 1 0.5 0.7 0.1-0.1 0.5-0.3 1-0.4 1.5-0.4 3.6-1.6 4.5-2.5q0.4-0.5 0.3-0.2c-0.1 0.1-0.1 0.2 0 0.2 0.2 0 1-0.5 1.3-0.8 0.2-0.3 0.5-0.5 0.9-0.6 0.7-0.2 2.2-1.2 2.3-1.5q0.1-0.3 0-0.2-0.1 0 0-0.1c0-0.1 0.2-0.2 0.4-0.2 0.2-0.1 0.5-0.2 0.6-0.4 0.2-0.1 0.4-0.2 0.6-0.2 0.2-0.1 0.3-0.2 0.4-0.4 0.1-0.3 0.2-0.4 0.4-0.5q0.3 0 0.4-0.4c0.1-0.2 0.2-0.3 0.5-0.3 0.1 0 0.3-0.1 0.4-0.2 0.2-0.2 0.2-0.2-0.1-0.3q-0.3-0.1-0.1-0.1c0.5 0 1.3-0.7 3.5-2.8 2.2-2.2 2.9-3.2 3.3-4.2 0.1-0.5 0.2-0.6 0.6-0.8 0.4-0.2 0.8-0.7 0.8-1.1 0-0.3 0.6-0.9 0.7-0.8 0.1 0.1 0.1-0.1 0.1-0.4q0-0.6 0.2-0.6c0.3 0 0.8-0.5 0.9-1.1 0.1-0.2 0.2-0.5 0.3-0.6 0.2-0.2 0.2-0.5 0-0.5q-0.2 0 0.1-0.1c0.2-0.1 0.4-0.3 0.5-0.5 0.1-0.2 0.4-0.6 0.6-0.9 0.2-0.3 0.4-0.8 0.5-1.1 0.1-0.2 0.2-0.5 0.3-0.5 0.1 0 0.2 0 0.3-0.1q0.2 0 0.2 0.2 0 0.3 0.1 0.2c0.1-0.1 0.2-0.1 0.4-0.1 0.3 0.1 0.3 0.2 0.3 0.6 0 0.2 0.1 0.6 0.1 0.9 0.1 0.4 0.2 0.4 0.3 0.2 0.2-0.2 0.2-0.2 0.1 0 0 0.2 0 0.5 0 0.7 0.1 0.4 0.1 0.4 0.2 0.3 0.1-0.2 0.1-0.6 0.2-1 0-0.5 0-0.8 0.1-0.8 0 0 0-0.5 0-1.1 0-0.6 0.1-1 0.2-1 0 0 0.1-0.3 0.1-0.7 0-0.3 0-0.7 0.1-0.9 0.1-0.1 0.2-0.9 0.2-2 0-1 0.1-2.2 0.1-2.7 0.2-1 0.2-1.4 0.3-2.3 0-0.5 0-0.6 0.1-0.5q0.1 0.3 0.1 0c-0.1-0.1-0.1-0.4-0.2-0.7 0-0.2-0.1-0.4-0.1-0.5-0.1 0-0.8 0.5-1.6 1.1-0.8 0.5-1.7 1.2-1.9 1.3-0.3 0.2-0.5 0.3-0.5 0.4q0.1 0.2-0.1 0.2c-0.3 0-0.9 0.7-0.9 1 0 0.1 0 0.1 0.1 0.1q0.1-0.1 0.1 0 0 0.2-0.2 0.1c-0.5-0.2-0.6-0.2-0.6 0q0.1 0.1-0.2 0.2c-0.5 0.1-1.9 1.3-2.5 2-0.2 0.3-0.5 0.7-0.5 0.8 0 0 0.4 0.1 0.9 0.1 0.7 0 0.9-0.1 0.9-0.2q0-0.2 0.2-0.1c0.1 0 0.2 0.1 0.2 0.1 0 0.1-0.4 1.2-0.7 1.8-0.1 0.3-0.3 0.7-0.4 1-0.1 0.3-0.2 0.5-0.2 0.4-0.1-0.2-1.2 1.4-1.6 2.2-0.2 0.3-0.4 0.7-0.4 1-0.1 0.3-0.2 0.6-0.3 0.6-0.3 0.3-0.7 0.9-0.8 1.4-0.1 0.4-0.2 0.5-0.3 0.2-0.1-0.3-0.2-0.3-0.6 0.3-0.2 0.3-0.6 0.8-0.9 1.1-0.2 0.3-1 1.2-1.6 1.9-0.7 0.7-1.8 1.9-2.6 2.8-0.9 0.9-1.3 1.5-1.3 1.7-0.1 0.2-0.1 0.2-0.2 0-0.2-0.2-0.2-0.2-0.5 0.3q-0.3 0.4-0.4 0.3-0.2-0.1-1.2 0.8c-0.5 0.5-1.1 1-1.4 1.1-0.2 0.2-0.4 0.3-0.4 0.4 0 0.1-0.4 0.4-0.9 0.7-0.9 0.6-1.9 1.5-1.7 1.7q0 0.1-0.1 0.1c-0.3 0-1.6 0.7-2.9 1.5-0.7 0.5-1.8 1.2-2.3 1.5-0.6 0.4-1.2 0.7-1.3 0.8l-0.3 0.3 0.6-0.1c0.9 0 1.5 0 1.4 0.1-0.1 0.1-0.6 0.1-1.2 0.2-1.2 0.1-1.9 0.4-2.5 1-0.2 0.2-0.5 0.4-0.7 0.4-0.2 0-0.2 0-0.2 0.2 0 0.2-0.2 0.4-0.6 0.6-0.3 0.2-0.6 0.3-0.7 0.3 0 0 0.1-0.1 0.3-0.2 0.5-0.2 1-0.7 0.7-0.7q-0.1 0 0.1-0.3c0.3-0.4 0.4-1.6 0.4-4.1v-1.4l1.5-1.1c1.2-1 1.4-1.1 1.2-1.3-0.1-0.1-0.1-0.1 0.2-0.2 0.2 0 0.4-0.1 0.4-0.2 0-0.1 0.1-0.2 0.4-0.3 0.2-0.1 0.6-0.3 0.9-0.5 0.4-0.4 0.6-0.4 1.2-0.4 0.5 0 0.9-0.1 1.1-0.1 0.1-0.1 0.4-0.2 0.6-0.2 0.2 0 0.3 0 0.3-0.1 0 0-0.1-0.1-0.2-0.1-0.1 0-0.1 0-0.1-0.1 0-0.1 0.2 0 0.5 0.1 0.2 0.1 0.4 0.1 0.6 0 0.1-0.1 0.6-0.1 1.1-0.1 0.8 0 1 0 1.4-0.3 0.2-0.1 0.5-0.4 0.6-0.6 0.1-0.3 0.2-0.4 0.2-0.2q0 0.2 0.2 0.2c0.3 0 0.4-0.5 0.1-0.5q-0.1 0 0.1-0.1c0.2-0.1 0.6-0.3 0.9-0.5 0.5-0.3 0.5-0.4 0.4-0.6-0.1-0.1 0-0.2 0.2-0.4 0.2-0.1 0.4-0.2 0.6-0.3q0.6-0.4 0.3 0-0.2 0.3 0 0.1c0.1 0 0.4-0.2 0.6-0.4 0.3-0.2 0.6-0.5 0.7-0.5 0.1-0.1 0.3-0.2 0.4-0.4 0-0.1 0.2-0.3 0.2-0.4 0.1-0.1 0.2-0.5 0.2-1.1v-1l0.8-0.3c0.4-0.1 0.8-0.3 0.9-0.3q0.2 0 0-0.3c-0.1-0.2 0-0.2 0.4-0.2 0.3-0.1 0.5 0 0.6 0 0 0.1 0.2 0 0.3-0.2 0.1-0.2 0.4-0.5 0.6-0.6 0.3-0.1 0.5-0.4 0.5-0.5 0.1-0.1 0.3-0.5 0.5-0.7q0.9-0.9 1-1.5c0.1-0.1 0.2-0.4 0.4-0.6 0.1-0.2 0.3-0.5 0.3-0.7 0.1-0.3 0.2-0.5 0.5-0.7 0.2-0.2 0.4-0.5 0.5-0.8 0-0.3 0.2-0.5 0.2-0.5q0.2 0.1 0.2-0.4c0-0.2 0-0.4-0.1-0.4 0 0-0.2 0-0.4 0.1q-1.3 0.3-2.1 0.2l-0.5-0.2 0.7-0.7c0.4-0.4 0.7-0.7 0.7-0.8 0-0.1 0.1-0.2 0.3-0.3 0.2-0.3 0.6-0.8 0.6-1 0-0.1-0.1-0.1-0.2-0.1q-0.3 0 0-0.2c0.2-0.1 0.4-0.3 0.6-0.5 0.3-0.4 0.3-0.4 0.2-0.1-0.1 0.3-0.1 0.3 0.3 0.2 0.6-0.2 1.4-1.2 1.2-1.6 0-0.1-0.1-0.3-0.2-0.4-0.2-0.1-0.2-0.1-0.1 0.1 0.1 0.5 0 0.3-0.3-0.2-0.1-0.4-0.1-0.5 0-0.4 0.2 0 0.2 0 0.1-0.2-0.2-0.3-0.4-0.4-1.1-0.5-0.7-0.1-0.8-0.1-1.3-0.7l-0.6-0.6-0.7 0.2c-0.5 0-1.5 0.1-2.4 0.1-2 0.1-1.8 0.1-3.2-0.1-0.3-0.1-0.7-0.1-0.9-0.2-0.2 0-0.4-0.1-0.6-0.2-0.1-0.1-0.5-0.2-0.8-0.3-0.3-0.1-0.6-0.2-0.7-0.3-0.1-0.2 0-0.2 0.2 0 0.1 0 0.3 0.1 0.4 0.1l0.3 0.1-0.3-0.4c-0.1-0.2-0.4-0.6-0.5-1-0.3-0.6-0.3-0.6-1.3-0.4z"/>
		<path class="s0" d="m4 78.7c-0.5 0-0.8 0.1-0.7 0.1 0.1 0 0.2 0.1 0.2 0.1 0.1 0.1-0.1 0.1-0.3 0.1-0.3-0.1-0.4-0.1-0.4 0.2q0 0.2 0.2 0.2c0.2 0 0.3-0.1 0.3-0.2 0 0 0 0.1 0.1 0.4 0.1 0.7 0.1 10.7 0 11.1-0.1 0.1-0.3 0.5-0.4 0.7-0.2 0.2-0.3 0.4-0.3 0.5 0.1 0 0.6 0.1 1.1 0.1 0.6 0 1.9 0 2.9 0.1 1.3 0 1.8 0 1.7-0.1-0.1-0.1 0-0.1 0.5-0.1q0.6 0 0.8-0.2c0.1-0.1 0.2-0.1 0.2-0.1 0 0 0.1 0 0.2 0 0.1-0.1 0.4-0.2 0.8-0.3 0.7-0.1 1.1-0.4 1.3-0.9 0.1-0.2 0.1-0.3 0.2-0.2q0 0.1 0.3-0.2c0.2-0.2 0.4-0.3 0.5-0.3 0.1 0 0.4-0.8 0.4-1 0-0.4 0.3-1 0.4-0.9 0.2 0 0.3-0.5 0.3-2.3 0.1-2.3-0.3-3.4-1.7-4.8-0.6-0.7-1.2-1-1.6-0.9q-0.2 0.1-0.4-0.2c-0.1-0.3-0.4-0.4-1.4-0.7-0.9-0.3-3.5-0.3-5.2-0.2zm4.3 1.2c2.1 0.5 2.9 1.3 3.6 3.5 0.3 0.8 0.4 1.1 0.3 2.2 0 2.5-1 4.4-2.7 5.2-0.6 0.3-0.9 0.3-2 0.4-1.6 0-1.7 0-1.7-0.6 0-0.3 0-0.3-0.1-0.1 0 0.1-0.1-2.2-0.1-5.3 0-3 0.1-5.4 0.1-5.2q0.1 0.3 0.1 0.1 0-0.2 0.3-0.3c0.2 0 0.2 0 0-0.1-0.5-0.2 1.1-0.1 2.2 0.2z"/>
		<path class="s0" d="m114.5 78.7c-0.5 0-0.8 0.1-0.7 0.1q0.1 0-0.2 0.1l-0.3 0.1 0.6 0.7 0.7 0.6v2.9l-0.1 2.9v-2.7c-0.1-1.5-0.1-2.8-0.2-2.8 0 0-0.1 0.1-0.1 0.3 0 0.3 0 0.3-0.1-0.1 0-0.2-0.1 1.9-0.1 4.6 0 2.8 0.1 4.9 0.1 4.7 0.1-0.3 0.1-0.3 0.1 0.1 0 0.4 0.1 0.4 0.2 0.3q0.1-0.2 0.1 0.1c0 0.2 0.1 0.4 0.2 0.5 0.1 0.1 0.1 0.3 0.1 0.3-0.1 0-0.2-0.1-0.3-0.2-0.2-0.2-0.3-0.3-0.4-0.3-0.1 0-0.9 0.8-0.9 0.9 0 0.1 0.2 0.1 0.4 0.2 0.6 0.2 3.5 0.2 3.2 0-0.1-0.1-0.1-0.1 0.1-0.1 0.3 0 0.2-0.2-0.2-0.5l-0.4-0.2v-2c0.1-1.6 0-2.2-0.1-2.6-0.1-0.4-0.1-0.5 0-0.4 0.1 0 0.2 0 0.3 0 0.2-0.1 0.2-0.1 0.1-0.2-0.3-0.2 0.9-0.1 1.3 0.1 0.2 0.1 0.5 0.3 0.6 0.5 0.2 0.3 0.5 0.5 0.4 0.2q-0.1-0.2 0.1-0.2c0.1 0.1 0.1 0.3 0.1 0.5 0 0.8 0.2 1.3 0.7 2.4 0.5 0.9 0.7 1.1 0.9 0.9 0-0.1 0.1-0.1 0.1 0.1q0.1 0.1 0 0.1-0.1-0.1-0.1 0c0 0.1 0 0.2 0.1 0.2 0.1 0 0.2 0.3 0.3 0.5 0.1 0.3 0.2 0.4 0.5 0.4 0.1 0 0.5 0 0.7 0.1q0.3 0.1 0.3 0c0-0.1 0.2-0.1 0.3-0.1 0.1 0 0.6 0.1 0.9 0.1 0.6 0.1 0.7 0.1 0.7-0.1 0-0.1-0.1-0.3-0.3-0.3-0.4-0.2-0.9-0.6-1.3-1.2l-0.3-0.4-0.2 0.2-0.2 0.3v-0.3c0-0.5-1.2-2.7-1.9-3.6l-0.7-0.8h0.3c0.2-0.1 0.5-0.1 0.8-0.2 0.2 0 0.5-0.1 0.7-0.1 0.2-0.1 0.3-0.2 0.2-0.2 0-0.1 0.1-0.3 0.3-0.4 0.1-0.2 0.3-0.4 0.4-0.5 0.1-0.1 0.3-0.3 0.4-0.3q0.1-0.2 0.2-0.9c0-0.4 0-0.7 0-0.6-0.1 0.1-0.1-0.2-0.2-0.6 0-0.5-0.1-0.9-0.4-1.2-0.5-0.9-1.3-1.3-2.8-1.5-0.3 0-0.6-0.1-0.5-0.2 0 0-0.1-0.1-0.2-0.1-0.4-0.2-3.2-0.2-4.3-0.1zm4.4 1.2c0.4 0.2 0.8 0.4 1 0.6 0.8 0.9 0.9 2.8 0 3.7-0.3 0.4-1.1 0.7-1.6 0.8-0.3 0-0.3 0-0.2 0.1 0.1 0.1 0 0.1-0.6 0-1.3-0.1-1.2 0.2-1.1-2.5 0-1.4 0-2.2 0.1-2.1 0.1 0.2 0.1 0.2 0.1-0.1 0-0.1-0.1-0.3-0.2-0.3 0-0.1 0.1-0.2 0.3-0.3 0.6-0.3 1.5-0.2 2.2 0.1z"/>
		<path class="s0" d="m68.7 78.8c0 0.1 0 0.5-0.1 0.8 0 0.3-0.3 1-0.5 1.5-0.2 0.5-0.4 0.9-0.3 0.9 0.2 0.2 1.3-0.7 1.6-1.4 0.2-0.3 0.2-0.3 0-0.2-0.2 0.2-0.2 0.2-0.1 0 0.1-0.1 0.1-0.4 0.2-0.5 0-0.3 0-0.3 0.1-0.1q0.1 0.3 0.1-0.2 0-0.5-0.2-0.7c-0.3-0.2-0.7-0.3-0.8-0.1z"/>
		<path class="s0" d="m73.7 78.9c0 0.1 0.2 0.2 0.4 0.2h0.3l-0.3 0.2c-0.6 0.3-0.8 0.7-1 1.4-0.1 0.3-0.2 0.6-0.3 0.7 0 0-0.1 0.3-0.1 0.6 0 0.4-0.1 0.5-0.2 0.4-0.1-0.2-0.1-0.2-0.4 0.6-0.2 0.6-0.2 0.7-0.1 0.8 0.1 0.1 0.1 0.3 0.1 0.4 0 0.2 0 0.2 0.1 0 0.3-0.2 0.8-1.1 0.7-1.3 0-0.1 0-0.3 0.1-0.5 0.1-0.3 0.2-0.6 0.2-0.8 0-0.1 0.1-0.4 0.1-0.5 0.1-0.1 0.1-0.1 0.2 0.1 0.1 0.1 0.2 0.6 0.4 1.1 0.2 0.5 0.7 1.7 1 2.7l0.6 1.8h-1.8-1.9l0.1-0.4c0.1-0.8 0.2-1.9 0.1-1.9q-0.2 0.1-0.2-0.2c0-0.3 0-0.2-0.2 0.2-0.1 0.3-0.3 0.6-0.3 0.7-0.1 0-0.2 0.3-0.4 0.7-0.1 0.4-0.3 0.9-0.4 1.2-0.1 0.3-0.2 0.7-0.2 0.9 0 0.2-0.1 0.3-0.2 0.4-0.1 0-0.2 0.1-0.2 0.2 0 0.1-0.2 0.7-0.5 1.3-0.5 1.2-0.6 1.5-0.4 1.3q0.2 0 0.1 0.1c-0.1 0.1-0.3 0.1-0.5 0.1-0.4 0.1-0.4 0.1-0.2 0.2 0.3 0 0.3 0-0.1 0.1h-0.4l0.4 0.2c0.3 0.1 0.9 0.2 1.9 0.2 0.9 0 1.3 0 1.1-0.1-0.2 0-0.6-0.1-0.8-0.1-0.2 0-0.4 0-0.5-0.1-0.1-0.1 0.4-0.3 0.6-0.1 0.1 0 0.4 0.1 0.7 0.1 0.5 0.1 0.5 0.1 0.5-0.1 0-0.2-0.1-0.3-0.4-0.4-0.3 0-0.6-0.2-0.7-0.3-0.2-0.1-0.2-0.2-0.1-0.8 0.1-0.4 0.2-0.8 0.2-1 0-0.5 0.3-1 0.7-1.3 0.2-0.2 0.3-0.3 0.3-0.3-0.1 0 0.3-0.1 0.9-0.2 0.7-0.1 1-0.1 1.3 0 0.3 0 0.7 0.1 1 0.2 0.3 0 0.6 0.1 0.7 0.2 0.3 0.3 0.4 0.3 0.4-0.1v-0.3l0.1 0.3c0.1 0.1 0.2 0.8 0.3 1.4 0.2 1.2 0.2 1.3 0.1 1.7-0.1 0.2-0.3 0.4-0.5 0.5-0.3 0.1-0.2 0.3 0.2 0.3 0.2 0 0.2 0-0.1 0.1-0.2 0-0.2 0.1 0 0.1q0.2 0 0.1 0.1-0.4 0.2 2.2 0.2 1.7 0 1.5-0.1-0.2-0.1 0.1-0.1c0.3 0 0.2-0.2-0.3-0.5-0.2-0.1-0.4-0.3-0.4-0.4 0-0.1-0.2-0.3-0.4-0.5-0.4-0.3-0.4-0.3-0.4-1.1 0-0.4-0.1-1-0.3-1.4-0.5-1.7-3.5-9-3.6-9 0 0-0.1 0-0.1-0.1 0 0-0.2-0.1-0.5-0.1-0.2 0-0.4 0.1-0.4 0.1z"/>
		<path class="s0" d="m16.9 79.1c-0.5 0.4-0.8 1.2-0.4 1.2 0.1 0 0.2 0.1 0.3 0.3 0.3 0.2 0.8 0.3 1 0 0.1-0.1 0.2-0.4 0.2-0.6 0-0.4-0.1-0.6-0.3-0.8-0.4-0.3-0.6-0.3-0.8-0.1z"/>
		<path class="s0" d="m109.1 79.2c0 0.1 0.1 0.2 0.2 0.4 0.2 0.4 0.2 0.4-0.1 0.3-0.3 0-0.3 0-0.2 0.2 0.1 0.1 0.1 0.4 0.1 0.5 0 0.3 0 0.4 0.4 0.3 0.2 0 0.3-0.1 0.3-0.2q0-0.2 0.3-0.1 0.3 0.1 0.5-0.1c0.5-0.4 0.2-0.9-0.7-1.2-0.6-0.1-0.8-0.2-0.8-0.1z"/>
		<path class="s0" d="m52.3 82.9c-2.4 0.7-4.1 3.8-3.4 6.2 0.2 0.7 0.9 1.5 1.5 1.8 0.3 0.1 0.6 0.4 0.8 0.5 0.4 0.3 0.5 0.3 0.9 0.1l0.3-0.2-0.3-0.3c-0.2-0.1-0.6-0.8-0.9-1.5l-0.5-1.3 0.1-1.5c0.1-0.8 0.2-1.6 0.3-1.7 0.3-0.5 1-1.1 1.4-1.2 0.3 0 0.4-0.1 0.3-0.2 0-0.1 0.4 0 1.5 0.2l0.6 0.1 0.5 1c0.4 1 1 1.7 1.4 1.8 0.1 0 0.1 0.1 0 0.2q0 0.1-0.3 0c-0.1 0-0.2-0.1-0.2-0.1-0.1 0-0.1 0.5-0.1 1.1-0.1 1-0.1 1.3-0.5 1.9-0.5 1.2-1.2 1.6-3.1 1.8-0.6 0.1-0.6 0.1-0.4 0.3 1 0.4 2.6 0.2 3.3-0.5 0.2-0.2 0.6-0.4 0.8-0.5 0.4-0.1 0.6-0.2 1.2-1 0.4-0.6 0.5-0.8 0.5-1.2 0-0.3 0.1-0.8 0.1-1.1 0.1-0.4 0-0.6-0.3-1.2-0.1-0.4-0.4-0.9-0.5-1.3-0.3-0.8-0.9-1.4-1.7-1.6-0.3-0.1-0.8-0.3-1-0.3-0.4-0.2-1.3-0.4-1.6-0.4-0.1 0-0.4 0-0.7 0.1z"/>
		<path class="s0" d="m23.4 83.1c-1 0.3-1.7 1-2.2 1.9l-0.2 0.4h0.7c0.6 0 0.7 0 0.7-0.2 0-0.4 1-1.3 1.4-1.3 0.6 0 1.1 0.3 1.5 0.7 0.3 0.3 0.3 0.4 0.3 1.1 0 0.6 0 0.8-0.2 0.8-0.1 0.1-0.2 0.2-0.2 0.2-0.1 0.1-0.6 0.2-1.2 0.4-0.7 0.2-1.3 0.4-1.5 0.5-0.5 0.2-1.1 1.1-1.3 1.7 0 0.2-0.1 0.2-0.1 0.1 0-0.1 0-0.2-0.1-0.2-0.1-0.1-0.2 1.2 0 1.6 0.1 0.5 0.7 0.9 1.3 1.1 0.4 0.1 0.5 0.1 0.5 0 0-0.1 0.3-0.1 0.7-0.1q1.2 0 0.5-0.4c-0.2-0.1-0.5-0.2-0.7-0.2q-0.3 0-0.3-0.1c0-0.1-0.2-0.5-0.3-0.9l-0.3-0.7 0.2-0.4c0.6-0.9 1.6-1.5 2.8-1.8l0.5-0.1v0.5c0 0.4-0.1 0.4-0.1 0.1-0.1-0.2-0.1-0.1-0.1 0.3 0 1.3-0.1 1.8-0.3 2.1-0.2 0.1-0.3 0.3-0.3 0.4 0 0.1-0.2 0.2-0.4 0.3q-0.9 0.3-0.2 0.3c0.2 0 0.5-0.1 0.6-0.2 0.2-0.2 0.8-0.1 0.8 0.2 0 0.2 0 0.2 0.2 0.1 0.2-0.1 0.2 0 0.3 0.2 0 0.3 0.5 0.5 1.1 0.6 0.2 0 0.3 0 0.2 0-0.2-0.1 0-0.2 0.5-0.5 0.7-0.3 1.1-0.7 0.6-0.6-0.1 0-0.3 0.1-0.3 0.1-0.1 0-0.3-0.2-0.5-0.4q-0.3-0.4-0.4-0.3c-0.1 0.2-0.2-2.5-0.1-3.7 0-1 0-1.1-0.2-0.9-0.1 0.1-0.1 0.1-0.1-0.3 0-0.2-0.1-0.6-0.2-0.9-0.5-1.4-2.1-2.1-3.6-1.5z"/>
		<path class="s0" d="m39.6 83.1c-0.2 0.1-0.7 0.2-1.2 0.3l-0.8 0.2 0.5 0.4 0.4 0.4v5.6c0 3 0 5.4 0.1 5.2l0.1-0.4v0.4c0 0.3 0 0.3 0.1 0.1 0.1-0.2 0.1-0.2 0.1 0.2 0 0.3 0 0.3-0.4 0.3-0.4 0-0.4 0-0.2 0.2 0.2 0.2 0.2 0.2-0.1 0.1q-0.6-0.1 0 0.2c0.2 0.2 0.7 0.2 1.6 0.2 1 0 1.2 0 1.6-0.2 0.4-0.2 0.4-0.2 0.1-0.2-0.3 0.1-0.5 0-0.8-0.3-0.2-0.2-0.4-0.3-0.5-0.3-0.1 0-0.1-0.2-0.1-0.4 0.1-0.2 0.2-1 0.2-1.8l0.1-1.4 0.5-0.1c0.6 0 0.9-0.2 0.5-0.2-0.1 0-0.2-0.1-0.2-0.2 0 0-0.3-0.2-0.5-0.4l-0.5-0.2v-1.6c0-2 0.2-4.4 0.2-4.1 0.1 0.2 0.1 0.1 0.3-0.3 0.1-0.3 0.5-0.7 0.7-0.9 0.6-0.5 0.4-0.6-0.1-0.1-0.5 0.3-0.6 0.2-1-0.5-0.1-0.2-0.2-0.4-0.2-0.4 0 0-0.2 0.1-0.5 0.2z"/>
		<path class="s0" d="m42.5 83.1c-0.2 0.1-0.5 0.4-0.6 0.6l-0.2 0.3 0.9 0.1c1.1 0 1.6 0.4 2.1 1.4 0.4 0.7 0.4 0.8 0.3 1.4 0 0.6 0 0.7 0.1 0.7 0.2-0.1 0.2-0.1 0 0.9-0.3 1.4-1.1 2.3-2.5 2.8-0.4 0.1-0.8 0.4-1 0.5l-0.2 0.3h1c0.8 0 1 0 1-0.2 0-0.2 0-0.2 0.4-0.1 0.4 0.1 0.5 0 0.5-0.1 0-0.1 0.1-0.1 0.2-0.1 0.2 0 0.3-0.1 0.3-0.2 0-0.1 0.1-0.2 0.2-0.2 0.4 0 0.9-0.4 1.2-1 0.8-1.8 1-2.2 0.8-2.2 0 0-0.1-0.6-0.1-1.2 0-1.1 0-1.3-0.3-1.9-0.5-1-1.2-1.6-2-1.8-0.8-0.3-1.7-0.3-2.1 0z"/>
		<path class="s0" d="m61.1 83.1c-0.4 0.1-0.9 0.3-1.1 0.3-0.4 0.1-0.5 0.2-0.5 0.4 0 0.2 0.3 0.4 0.5 0.3 0 0 0.1 0.1 0.2 0.2 0.2 0.2 0.2 0.9 0.2 3.5v3.3l-0.4 0.1c-0.3 0.2-0.4 0.4-0.1 0.4q0.2-0.1 0 0.1c-0.1 0.1-0.1 0.1 0 0.1q0.2 0 0 0.1c-0.2 0.1 0.7 0.3 2.2 0.2 1.2 0 1.2 0 0.6-0.1-0.6-0.1-0.6-0.1-0.2-0.2 0.2-0.1 0.5-0.1 0.6-0.1 0.3 0.1 0.3-0.1 0-0.2-0.2-0.1-0.4-0.2-0.6-0.4-0.2-0.2-0.2-0.2-0.3-3.2 0-1.7 0-3 0-2.9 0.1 0.1 0.1 0.1 0.6-0.1 0.8-0.5 1.6-0.7 1.7-0.5q0.1 0.1 0.1 0.1c0-0.1 0.2 0 0.4 0.1 0.2 0.1 0.4 0.2 0.5 0.2 0 0 0-0.3 0.1-0.6 0-0.6 0.1-0.8 0.2-0.4 0 0.1 0 0 0-0.2-0.1-0.6-0.3-0.8-1-0.7-0.6 0.1-1.2 0.4-1.4 0.8q-0.1 0.3-0.6 0.4l-0.5 0.1-0.1-0.4c0-0.3-0.1-0.6-0.3-0.7-0.2-0.2-0.2-0.2-0.8 0z"/>
		<path class="s0" d="m91.4 83c-0.5 0.1-1 0.4-1.4 0.8-0.2 0.2-0.4 0.3-0.4 0.3-0.3 0-0.6 0.6-0.9 1.4-0.3 1.1-0.3 1.4 0.1 0.7 0.3-0.6 0.3-0.5 0 1.1-0.2 0.7-0.4 1.4-0.4 1.6 0 0.2 0 0.2 0.4 0.2 0.5 0 0.5 0 0.5 0.6 0.1 0.6 0 0.8-0.1 0.3-0.1-0.5-0.2-0.7-0.4-0.7-0.1 0-0.2 0-0.1 0.3 0.1 0.4 0.5 0.9 0.6 0.9 0.1 0 0.2 0.2 0.3 0.4 0.1 0.4 0.2 0.5 0.5 0.5 0.2 0.1 0.5 0.2 0.8 0.4 0.4 0.2 0.6 0.3 1.5 0.3 0.8 0 1.1 0 1.1-0.1-0.1-0.1-0.1-0.2-0.2-0.2 0-0.1 0.1-0.1 0.4-0.1 0.6 0 1.9-0.7 1.8-0.9-0.1-0.3-0.5-0.4-0.6-0.3-0.7 0.5-2.8 0.4-3.4 0-0.2-0.2-0.4-0.3-0.5-0.3-0.2 0.2-0.8-1.3-1-2.6-0.1-0.4-0.1-0.7-0.2-0.8-0.1-0.2 0-0.2 0.1-0.2 0.2 0.1 1.4 0.1 2.8 0.1 1.4 0 2.5 0.1 2.6 0.1 0.1 0 0.3 0 0.5 0 0.3 0 0.3 0 0.2-0.6 0-0.3-0.2-0.8-0.2-1-0.1-0.2-0.2-0.5-0.2-0.7 0-0.2-0.1-0.2-0.4-0.3q-0.4-0.1-0.6-0.4c-0.2-0.4-0.5-0.6-1.6-0.8-1-0.1-1.2-0.2-1.6 0zm1.3 0.4c0.2 0.2 0.4 0.3 0.5 0.3q0.2 0-0.3-0.3c-0.3-0.2-0.4-0.2-0.2-0.3 0.2 0 0.7 0.3 0.7 0.5 0 0 0.2 0.4 0.4 0.7 0.3 0.5 0.4 0.8 0.4 1.2 0 0.3 0 0.5 0.1 0.4q0.1 0 0.1 0.1c0 0.2-1 0.2-1.8 0.1-0.8-0.1-2.7 0-2.5 0.1q0.2 0.1-0.1 0.1h-0.2l0.2-0.4c0.1-0.3 0.3-0.7 0.3-0.9 0.1-0.4 0.2-0.5 0.8-0.9 0.4-0.3 0.8-0.6 0.9-0.8 0.3-0.3 0.3-0.3 0.7 0.1z"/>
		<path class="s0" d="m98.6 83.3c-0.5 0.2-1.1 0.3-1.2 0.3q-0.2 0-0.1 0.2c0.1 0 0.4 0.1 0.8 0.2 0.5 0.1 0.5 0.1 0.5 0.4 0 0.4 0 0.4-0.1 0.1-0.1-0.3-0.1-0.3-0.1 0 0 0.4 0 0.4-0.1 0.1-0.1-0.2-0.1 1.2-0.1 3 0 1.9 0 3.2 0.1 3.2 0 0 0 0.1-0.2 0.4-0.2 0.4-0.2 0.5-0.5 0.4q-0.2 0-0.2 0.1c0 0 0.2 0.1 0.3 0.1q0.4 0 0 0.1c-0.1 0.1 0 0.1 0.4 0.1 0.8 0.2 1.1 0.2 1 0q-0.1-0.1 0.4-0.1c0.3 0.1 0.7 0.1 1 0 0.5 0 0.5-0.1 0.2-0.1l-0.3-0.1h0.3 0.4l-0.4-0.6-0.4-0.6v-1.7c0.1-1.3 0.1-1.9-0.1-2.6-0.1-0.5-0.2-1.2-0.2-1.4 0-0.9-0.2-1.8-0.3-1.9 0 0-0.5 0.1-1.1 0.4z"/>
		<path class="s0" d="m102.9 83.1c-0.3 0.1-0.5 0.3-0.6 0.5l-0.1 0.3-0.1-0.3v-0.3l-0.5 0.3c-0.5 0.2-1.5 1.1-1.4 1.2 0 0 0.4-0.1 0.9-0.2 1.4-0.4 2.1-0.3 2.7 0.5 0.2 0.2 0.4 0.4 0.4 0.3 0.1-0.1 0.1 2.8 0 6.1 0 0.1-0.1 0.2-0.4 0.2-0.3 0-0.3 0-0.1 0.1q0.2 0.1 0.1 0.1-0.2 0 0.1 0.1c0.1 0.1 0.9 0.1 1.7 0.1 0.8 0 1.2 0 1.1-0.1l-0.3-0.1h0.3c0.1 0 0.3 0 0.4 0 0.1 0-0.2-0.4-0.6-0.8-0.5-0.4-0.5-0.7-0.4-1.6 0.1-0.6 0.1-1 0-1.6-0.1-0.5-0.2-1.2-0.1-1.6 0-1.5-0.8-3-1.9-3.3-0.6-0.2-0.8-0.2-1.2 0.1z"/>
		<path class="s0" d="m109.9 83.1c-0.4 0.1-1 0.3-1.3 0.4-0.3 0-0.4 0.1-0.4 0.3 0 0.2 0.1 0.2 0.4 0.2h0.5l0.1 1.8c0.1 2.2-0.1 4-0.4 5.2-0.3 0.7-0.3 0.8-0.5 0.7q-0.1-0.2 0.1 0.1c0.2 0.3 0.3 0.3 1.9 0.3 1 0 1.5 0 1.4-0.1q-0.2-0.1 0-0.1 0.3-0.1-0.1-0.2c-0.4-0.1-0.5-0.1-0.6-1.9-0.1-0.9-0.1-2.4-0.1-4.2 0.1-1.5 0.1-2.7 0-2.7 0 0-0.5 0.1-1 0.2z"/>
		<path class="s0" d="m18 83.1c0 0.1 0 0.3-0.1 0.4q-0.1 0.2-0.1-0.1 0-0.2-0.1-0.1c-0.1 0.1-0.3 0.1-0.5 0.1-0.3-0.1-1.3 0.1-1.4 0.3-0.2 0.3 0.5 0.4 1 0.2 0.3-0.1 0.3-0.1 0.1 0.1q-0.2 0.3-0.2 0.7 0.1 0.5 0 0.2c-0.1-0.2-0.1 0.8-0.1 2.8 0 1.7 0 3 0.1 2.8 0.1-0.3 0.1-0.3 0.1 0.1v0.4l0.1-0.3 0.1-0.4v0.5c0 0.4 0 0.4-0.5 0.5-0.5 0-0.7 0.2-0.4 0.3q0.1 0-0.1 0.1l-0.2 0.1h0.2q0.3 0 0.1 0.1c-0.2 0.1 0.5 0.2 1.9 0.2q1.3 0 1.1-0.1c-0.1-0.1-0.1-0.1 0.2-0.1 0.2 0 0.3-0.1 0.3-0.2 0-0.3-0.1-0.3-0.5-0.2-0.5 0.1-0.5 0.1-0.6-0.3-0.1-0.2-0.1-2-0.1-4.1 0-3.5-0.1-3.8-0.3-4-0.1-0.1-0.2-0.1-0.1 0z"/>
		<path class="s0" d="m31.8 83.2c-1 0.5-1.6 1.4-1.2 1.9 0.2 0.3 0.2 0.3-0.1 0.3-0.2 0-0.2 0.1-0.1 0.3q0.2 0.8 0.7 1.2c1 0.8 1.8 1.3 2.2 1.5 0.4 0.2 0.6 0.3 0.8 0.8 0.3 0.5 0.4 1.3 0.2 1.7-0.1 0.3-0.6 0.5-1.1 0.5-0.7 0-1.2-0.3-2-1-0.4-0.4-0.8-0.7-0.8-0.7-0.1 0-0.1 0.4-0.1 0.8v0.9l0.4 0.2c0.3 0.1 0.5 0.2 0.6 0.1q0.1 0 0.1 0c0 0.1 0.2 0.2 0.4 0.2 0.2 0 0.7 0 0.9 0.1 0.5 0.1 0.9 0.1 1.6 0 0.2-0.1 0.3-0.1 0.4-0.1 0.1 0 0.3-0.1 0.4-0.3 0-0.2 0-0.3 0-0.2q-0.1 0-0.1-0.1c0-0.1 0-0.1 0.4 0 0.2 0.1 0.3 0.1 0.4-0.2 0.1-0.3 0.2-0.7 0.2-1.1 0-0.6 0-0.8-0.2-1.3-0.3-0.7-0.7-1.1-0.9-0.9 0 0.1-0.1 0-0.3-0.2-0.7-1-0.8-1-1.3-0.9-0.3 0-0.4 0-0.2-0.2 0.1-0.1 0.1-0.2-0.4-0.4-0.6-0.3-0.9-0.7-1.1-1.6-0.1-0.5-0.1-0.5 0.7-0.6 0.2-0.1 0.5-0.2 0.5-0.2 0.3-0.2 1.3 0.2 2 0.8 0.4 0.3 0.7 0.6 0.8 0.6 0 0 0.1-0.4 0.1-0.9v-0.8l-0.8-0.2c-1.1-0.3-2.4-0.3-3.1 0z"/>
		<path class="s0" d="m79.9 83.2c-0.5 0.2-0.7 0.4-0.2 0.3 0.2-0.1 0.3 0 0.4 0.4 0.1 0.3 0.3 1 0.6 1.6 0.3 0.6 0.6 1.2 0.6 1.3 0 0.2 0.4 1.6 0.5 1.7 0 0.1 0.1 0 0.2-0.1 0.2-0.3 0.2-0.2 0.2 0.2 0 0.6 0.3 1.3 0.6 1.5 0.1 0 0.2 0.2 0.2 0.2q0 0.2-0.1 0.1-0.2-0.1-0.1 0.1c0.1 0.1 0.2 0.4 0.3 0.8 0 0.6 0.2 0.9 0.3 0.7 0 0 0.2-0.1 0.4-0.1 0.2 0 0.3-0.1 0.3-0.3 0.1-0.2 0.1-0.4 0.1-0.5 0 0 0.1-0.1 0.2-0.1 0.2 0 0.4-0.3 0.7-1 0.8-2 1-2.5 1-3.2 0-0.6 0.1-0.8 0.3-0.9 0.4-0.2 0.8-1 0.8-1.4 0-0.1 0.1-0.4 0.2-0.6 0.2-0.3 0.3-0.3 0.6-0.3 0.3 0 0.4-0.1 0.4-0.3 0-0.2-0.1-0.2-1.3-0.2h-1.3l0.2 0.6c0.1 0.4 0.1 0.9 0.1 1.3-0.1 0.8-0.7 2.8-0.9 2.8-0.1 0-0.1 0.1-0.1 0.2 0 0.3-0.6 1.7-0.7 1.7-0.1 0-0.7-1.4-0.9-2-0.2-0.7-0.3-0.7-0.5-0.5-0.3 0.2-0.3 0.2-0.2-0.2 0.1-0.3 0-0.5 0-0.6-0.2-0.2-0.6-2.1-0.6-2.3 0.1-0.1 0.3-0.3 0.6-0.4 0.6-0.2 0.6-0.5 0.1-0.6-0.7-0.2-2.6-0.1-3 0.1z"/>
	</g>
</svg>